{
    "asset" : {
        "generator" : "Khronos glTF Blender I/O v1.1.46",
        "version" : "2.0"
    },
    "scene" : 0,
    "scenes" : [
        {
            "name" : "Scene",
            "nodes" : [
                0,
                1,
                2,
                3,
                4
            ]
        }
    ],
    "nodes" : [
        {
            "mesh" : 0,
            "name" : "LogoSpaceAR_150",
            "rotation" : [
                0,
                0.7071067690849304,
                -0.7071067690849304,
                -3.0908619663705394e-08
            ],
            "translation" : [
                0,
                0,
                -6.660403728485107
            ]
        },
        {
            "mesh" : 1,
            "name" : "melody",
            "rotation" : [
                0.7071067690849304,
                0,
                0,
                0.7071067690849304
            ],
            "translation" : [
                0,
                0,
                -6.270339488983154
            ]
        },
        {
            "name" : "Camera",
            "rotation" : [
                -0.7070198059082031,
                -0.011090297251939774,
                0.011090297251939774,
                -0.7070198059082031
            ],
            "translation" : [
                0.043896615505218506,
                0,
                26.318675994873047
            ]
        },
        {
            "mesh" : 2,
            "name" : "Torus.002",
            "rotation" : [
                -0.6523312330245972,
                -0.26831185817718506,
                -0.2728809416294098,
                -0.6542237401008606
            ],
            "translation" : [
                -0.1619543731212616,
                -0.07520222663879395,
                -6.473471641540527
            ]
        },
        {
            "mesh" : 3,
            "name" : "Back_Cover",
            "rotation" : [
                0.5026143193244934,
                0.5026142597198486,
                -0.49737194180488586,
                -0.49737200140953064
            ],
            "scale" : [
                2.5,
                2.379470109939575,
                3.5
            ]
        }
    ],
    "materials" : [
        {
            "alphaMode" : "BLEND",
            "doubleSided" : true,
            "emissiveFactor" : [
                0,
                0,
                0
            ],
            "name" : "LogoSpaceAR_150",
            "pbrMetallicRoughness" : {
                "baseColorTexture" : {
                    "index" : 0,
                    "texCoord" : 0
                },
                "metallicFactor" : 0,
                "roughnessFactor" : 0.5
            }
        },
        {
            "alphaMode" : "BLEND",
            "doubleSided" : true,
            "emissiveFactor" : [
                0,
                0,
                0
            ],
            "name" : "melody",
            "pbrMetallicRoughness" : {
                "baseColorTexture" : {
                    "index" : 1,
                    "texCoord" : 0
                },
                "metallicFactor" : 0,
                "roughnessFactor" : 0.5
            }
        },
        {
            "doubleSided" : true,
            "emissiveFactor" : [
                0,
                0,
                0
            ],
            "name" : "Material.001",
            "pbrMetallicRoughness" : {
                "baseColorFactor" : [
                    0.01599629409611225,
                    0.014443841762840748,
                    0.033104777336120605,
                    1
                ],
                "metallicFactor" : 0.7416666746139526,
                "roughnessFactor" : 0.5
            }
        }
    ],
    "meshes" : [
        {
            "name" : "LogoSpaceAR_150",
            "primitives" : [
                {
                    "attributes" : {
                        "POSITION" : 0,
                        "NORMAL" : 1,
                        "TEXCOORD_0" : 2
                    },
                    "indices" : 3,
                    "material" : 0
                }
            ]
        },
        {
            "name" : "melody",
            "primitives" : [
                {
                    "attributes" : {
                        "POSITION" : 4,
                        "NORMAL" : 5,
                        "TEXCOORD_0" : 6
                    },
                    "indices" : 3,
                    "material" : 1
                }
            ]
        },
        {
            "name" : "Torus.002",
            "primitives" : [
                {
                    "attributes" : {
                        "POSITION" : 7,
                        "NORMAL" : 8,
                        "TEXCOORD_0" : 9
                    },
                    "indices" : 10,
                    "material" : 2
                }
            ]
        },
        {
            "name" : "Plane.004",
            "primitives" : [
                {
                    "attributes" : {
                        "POSITION" : 11,
                        "NORMAL" : 12,
                        "TEXCOORD_0" : 13
                    },
                    "indices" : 3
                }
            ]
        }
    ],
    "textures" : [
        {
            "sampler" : 0,
            "source" : 0
        },
        {
            "sampler" : 1,
            "source" : 1
        }
    ],
    "images" : [
        {
            "bufferView" : 4,
            "mimeType" : "image/png",
            "name" : "LogoSpaceAR_150"
        },
        {
            "bufferView" : 8,
            "mimeType" : "image/png",
            "name" : "melody"
        }
    ],
    "accessors" : [
        {
            "bufferView" : 0,
            "componentType" : 5126,
            "count" : 4,
            "max" : [
                1.1228070259094238,
                0,
                0.5
            ],
            "min" : [
                -1.1228070259094238,
                0,
                -0.5
            ],
            "type" : "VEC3"
        },
        {
            "bufferView" : 1,
            "componentType" : 5126,
            "count" : 4,
            "type" : "VEC3"
        },
        {
            "bufferView" : 2,
            "componentType" : 5126,
            "count" : 4,
            "type" : "VEC2"
        },
        {
            "bufferView" : 3,
            "componentType" : 5123,
            "count" : 6,
            "type" : "SCALAR"
        },
        {
            "bufferView" : 5,
            "componentType" : 5126,
            "count" : 4,
            "max" : [
                1.355444312095642,
                -0.10981085896492004,
                0.5791334509849548
            ],
            "min" : [
                -1.4108377695083618,
                -0.17043106257915497,
                -0.6503535509109497
            ],
            "type" : "VEC3"
        },
        {
            "bufferView" : 6,
            "componentType" : 5126,
            "count" : 4,
            "type" : "VEC3"
        },
        {
            "bufferView" : 7,
            "componentType" : 5126,
            "count" : 4,
            "type" : "VEC2"
        },
        {
            "bufferView" : 9,
            "componentType" : 5126,
            "count" : 164,
            "max" : [
                1.7853418588638306,
                0.12244738638401031,
                1.630861759185791
            ],
            "min" : [
                -1.4356311559677124,
                -0.12447310239076614,
                -1.5904688835144043
            ],
            "type" : "VEC3"
        },
        {
            "bufferView" : 10,
            "componentType" : 5126,
            "count" : 164,
            "type" : "VEC3"
        },
        {
            "bufferView" : 11,
            "componentType" : 5126,
            "count" : 164,
            "type" : "VEC2"
        },
        {
            "bufferView" : 12,
            "componentType" : 5123,
            "count" : 246,
            "type" : "SCALAR"
        },
        {
            "bufferView" : 13,
            "componentType" : 5126,
            "count" : 4,
            "max" : [
                0.25594642758369446,
                2.7511911392211914,
                0.42677828669548035
            ],
            "min" : [
                -0.25174468755722046,
                2.7341060638427734,
                -0.3850650489330292
            ],
            "type" : "VEC3"
        },
        {
            "bufferView" : 14,
            "componentType" : 5126,
            "count" : 4,
            "type" : "VEC3"
        },
        {
            "bufferView" : 15,
            "componentType" : 5126,
            "count" : 4,
            "type" : "VEC2"
        }
    ],
    "bufferViews" : [
        {
            "buffer" : 0,
            "byteLength" : 48,
            "byteOffset" : 0
        },
        {
            "buffer" : 0,
            "byteLength" : 48,
            "byteOffset" : 48
        },
        {
            "buffer" : 0,
            "byteLength" : 32,
            "byteOffset" : 96
        },
        {
            "buffer" : 0,
            "byteLength" : 12,
            "byteOffset" : 128
        },
        {
            "buffer" : 0,
            "byteLength" : 5993,
            "byteOffset" : 140
        },
        {
            "buffer" : 0,
            "byteLength" : 48,
            "byteOffset" : 6136
        },
        {
            "buffer" : 0,
            "byteLength" : 48,
            "byteOffset" : 6184
        },
        {
            "buffer" : 0,
            "byteLength" : 32,
            "byteOffset" : 6232
        },
        {
            "buffer" : 0,
            "byteLength" : 3055311,
            "byteOffset" : 6264
        },
        {
            "buffer" : 0,
            "byteLength" : 1968,
            "byteOffset" : 3061576
        },
        {
            "buffer" : 0,
            "byteLength" : 1968,
            "byteOffset" : 3063544
        },
        {
            "buffer" : 0,
            "byteLength" : 1312,
            "byteOffset" : 3065512
        },
        {
            "buffer" : 0,
            "byteLength" : 492,
            "byteOffset" : 3066824
        },
        {
            "buffer" : 0,
            "byteLength" : 48,
            "byteOffset" : 3067316
        },
        {
            "buffer" : 0,
            "byteLength" : 48,
            "byteOffset" : 3067364
        },
        {
            "buffer" : 0,
            "byteLength" : 32,
            "byteOffset" : 3067412
        }
    ],
    "samplers" : [
        {
            "magFilter" : 9729,
            "minFilter" : 9986
        },
        {
            "magFilter" : 9729,
            "minFilter" : 9986
        }
    ],
    "buffers" : [
        {
            "byteLength" : 3067444,
            "uri" : "data:application/octet-stream;base64,"
        }
    ]
}
