{
    "asset" : {
        "generator" : "Khronos glTF Blender I/O v1.1.46",
        "version" : "2.0"
    },
    "scene" : 0,
    "scenes" : [
        {
            "name" : "Scene",
            "nodes" : [
                0,
                1,
                2,
                3,
                4
            ]
        }
    ],
    "nodes" : [
        {
            "mesh" : 0,
            "name" : "BlackLogo",
            "rotation" : [
                0.0028622380923479795,
                0.7071009874343872,
                -0.7071009874343872,
                0.0028622380923479795
            ],
            "translation" : [
                0,
                0,
                -6.653067111968994
            ]
        },
        {
            "mesh" : 1,
            "name" : "evaporate",
            "rotation" : [
                0.7071067690849304,
                0,
                0,
                0.7071067690849304
            ],
            "translation" : [
                0,
                0,
                -6.410398960113525
            ]
        },
        {
            "name" : "Camera",
            "rotation" : [
                -0.7070198059082031,
                -0.011090297251939774,
                0.011090297251939774,
                -0.7070198059082031
            ],
            "translation" : [
                0.043896615505218506,
                0,
                26.318675994873047
            ]
        },
        {
            "mesh" : 2,
            "name" : "Torus.002",
            "rotation" : [
                -0.6523312330245972,
                -0.26831185817718506,
                -0.2728809416294098,
                -0.6542237401008606
            ],
            "translation" : [
                -0.1619543731212616,
                -0.07520222663879395,
                -6.473471641540527
            ]
        },
        {
            "mesh" : 3,
            "name" : "Back_Cover",
            "rotation" : [
                0.5026143193244934,
                0.5026142597198486,
                -0.49737194180488586,
                -0.49737200140953064
            ],
            "scale" : [
                2.5,
                2.379470109939575,
                3.5
            ]
        }
    ],
    "materials" : [
        {
            "alphaMode" : "BLEND",
            "doubleSided" : true,
            "emissiveFactor" : [
                0,
                0,
                0
            ],
            "name" : "BlackLogo",
            "pbrMetallicRoughness" : {
                "baseColorTexture" : {
                    "index" : 0,
                    "texCoord" : 0
                },
                "metallicFactor" : 0,
                "roughnessFactor" : 0.5
            }
        },
        {
            "alphaMode" : "BLEND",
            "doubleSided" : true,
            "emissiveFactor" : [
                0,
                0,
                0
            ],
            "name" : "evaporate",
            "pbrMetallicRoughness" : {
                "baseColorTexture" : {
                    "index" : 1,
                    "texCoord" : 0
                },
                "metallicFactor" : 0,
                "roughnessFactor" : 0.5
            }
        },
        {
            "doubleSided" : true,
            "emissiveFactor" : [
                0,
                0,
                0
            ],
            "name" : "Material.001",
            "pbrMetallicRoughness" : {
                "baseColorFactor" : [
                    0.02624122053384781,
                    0.03433981165289879,
                    0.09530746936798096,
                    1
                ],
                "metallicFactor" : 0.7416666746139526,
                "roughnessFactor" : 0.5
            }
        }
    ],
    "meshes" : [
        {
            "name" : "BlackLogo",
            "primitives" : [
                {
                    "attributes" : {
                        "POSITION" : 0,
                        "NORMAL" : 1,
                        "TEXCOORD_0" : 2
                    },
                    "indices" : 3,
                    "material" : 0
                }
            ]
        },
        {
            "name" : "evaporate",
            "primitives" : [
                {
                    "attributes" : {
                        "POSITION" : 4,
                        "NORMAL" : 5,
                        "TEXCOORD_0" : 6
                    },
                    "indices" : 3,
                    "material" : 1
                }
            ]
        },
        {
            "name" : "Torus.002",
            "primitives" : [
                {
                    "attributes" : {
                        "POSITION" : 7,
                        "NORMAL" : 8,
                        "TEXCOORD_0" : 9
                    },
                    "indices" : 10,
                    "material" : 2
                }
            ]
        },
        {
            "name" : "Plane.004",
            "primitives" : [
                {
                    "attributes" : {
                        "POSITION" : 11,
                        "NORMAL" : 12,
                        "TEXCOORD_0" : 13
                    },
                    "indices" : 3
                }
            ]
        }
    ],
    "textures" : [
        {
            "sampler" : 0,
            "source" : 0
        },
        {
            "sampler" : 1,
            "source" : 1
        }
    ],
    "images" : [
        {
            "bufferView" : 4,
            "mimeType" : "image/png",
            "name" : "BlackLogo"
        },
        {
            "bufferView" : 8,
            "mimeType" : "image/png",
            "name" : "evaporate"
        }
    ],
    "accessors" : [
        {
            "bufferView" : 0,
            "componentType" : 5126,
            "count" : 4,
            "max" : [
                1.1184210777282715,
                0,
                0.5
            ],
            "min" : [
                -1.1184210777282715,
                0,
                -0.5
            ],
            "type" : "VEC3"
        },
        {
            "bufferView" : 1,
            "componentType" : 5126,
            "count" : 4,
            "type" : "VEC3"
        },
        {
            "bufferView" : 2,
            "componentType" : 5126,
            "count" : 4,
            "type" : "VEC2"
        },
        {
            "bufferView" : 3,
            "componentType" : 5123,
            "count" : 6,
            "type" : "SCALAR"
        },
        {
            "bufferView" : 5,
            "componentType" : 5126,
            "count" : 4,
            "max" : [
                3.204540729522705,
                0.03215289115905762,
                2.484844446182251
            ],
            "min" : [
                -3.511719226837158,
                0.014482498168945312,
                -2.366698980331421
            ],
            "type" : "VEC3"
        },
        {
            "bufferView" : 6,
            "componentType" : 5126,
            "count" : 4,
            "type" : "VEC3"
        },
        {
            "bufferView" : 7,
            "componentType" : 5126,
            "count" : 4,
            "type" : "VEC2"
        },
        {
            "bufferView" : 9,
            "componentType" : 5126,
            "count" : 192,
            "max" : [
                4.226290702819824,
                0.11000002175569534,
                4.221916675567627
            ],
            "min" : [
                -4.23148250579834,
                -0.11000002920627594,
                -4.2362141609191895
            ],
            "type" : "VEC3"
        },
        {
            "bufferView" : 10,
            "componentType" : 5126,
            "count" : 192,
            "type" : "VEC3"
        },
        {
            "bufferView" : 11,
            "componentType" : 5126,
            "count" : 192,
            "type" : "VEC2"
        },
        {
            "bufferView" : 12,
            "componentType" : 5123,
            "count" : 288,
            "type" : "SCALAR"
        },
        {
            "bufferView" : 13,
            "componentType" : 5126,
            "count" : 4,
            "max" : [
                0.9409273266792297,
                2.764197587966919,
                1.0232577323913574
            ],
            "min" : [
                -1,
                2.764197587966919,
                -0.8963804244995117
            ],
            "type" : "VEC3"
        },
        {
            "bufferView" : 14,
            "componentType" : 5126,
            "count" : 4,
            "type" : "VEC3"
        },
        {
            "bufferView" : 15,
            "componentType" : 5126,
            "count" : 4,
            "type" : "VEC2"
        }
    ],
    "bufferViews" : [
        {
            "buffer" : 0,
            "byteLength" : 48,
            "byteOffset" : 0
        },
        {
            "buffer" : 0,
            "byteLength" : 48,
            "byteOffset" : 48
        },
        {
            "buffer" : 0,
            "byteLength" : 32,
            "byteOffset" : 96
        },
        {
            "buffer" : 0,
            "byteLength" : 12,
            "byteOffset" : 128
        },
        {
            "buffer" : 0,
            "byteLength" : 1098,
            "byteOffset" : 140
        },
        {
            "buffer" : 0,
            "byteLength" : 48,
            "byteOffset" : 1240
        },
        {
            "buffer" : 0,
            "byteLength" : 48,
            "byteOffset" : 1288
        },
        {
            "buffer" : 0,
            "byteLength" : 32,
            "byteOffset" : 1336
        },
        {
            "buffer" : 0,
            "byteLength" : 2218288,
            "byteOffset" : 1368
        },
        {
            "buffer" : 0,
            "byteLength" : 2304,
            "byteOffset" : 2219656
        },
        {
            "buffer" : 0,
            "byteLength" : 2304,
            "byteOffset" : 2221960
        },
        {
            "buffer" : 0,
            "byteLength" : 1536,
            "byteOffset" : 2224264
        },
        {
            "buffer" : 0,
            "byteLength" : 576,
            "byteOffset" : 2225800
        },
        {
            "buffer" : 0,
            "byteLength" : 48,
            "byteOffset" : 2226376
        },
        {
            "buffer" : 0,
            "byteLength" : 48,
            "byteOffset" : 2226424
        },
        {
            "buffer" : 0,
            "byteLength" : 32,
            "byteOffset" : 2226472
        }
    ],
    "samplers" : [
        {
            "magFilter" : 9729,
            "minFilter" : 9986
        },
        {
            "magFilter" : 9729,
            "minFilter" : 9986
        }
    ],
    "buffers" : [
        {
            "byteLength" : 2226504,
            "uri" : "data:application/octet-stream;base64,"
        }
    ]
}
